{
    "asset" : {
        "generator" : "Khronos glTF Blender I/O v1.2.75",
        "version" : "2.0"
    },
    "scene" : 0,
    "scenes" : [
        {
            "name" : "Scene",
            "nodes" : [
                0,
                1,
                2,
                3,
                4,
                5,
                6,
                7,
                8,
                9,
                10
            ]
        }
    ],
    "nodes" : [
        {
            "mesh" : 0,
            "name" : "StrawLayer",
            "rotation" : [
                0,
                -0.6484745144844055,
                0,
                0.7612363696098328
            ],
            "scale" : [
                7.07381534576416,
                7.07381534576416,
                7.07381534576416
            ],
            "translation" : [
                0,
                -0.5425399541854858,
                0
            ]
        },
        {
            "mesh" : 1,
            "name" : "StrawLayer.001",
            "rotation" : [
                0,
                -0.6484745144844055,
                0,
                0.7612363696098328
            ],
            "scale" : [
                5.8518524169921875,
                5.8518524169921875,
                5.8518524169921875
            ],
            "translation" : [
                0,
                -0.15041163563728333,
                0
            ]
        },
        {
            "mesh" : 2,
            "name" : "StrawLayer.002",
            "rotation" : [
                -0.0032040614169090986,
                -0.11759202182292938,
                -0.04881393536925316,
                0.9918563365936279
            ],
            "scale" : [
                5.484560966491699,
                5.484561443328857,
                5.484560966491699
            ],
            "translation" : [
                0,
                0.017643600702285767,
                0
            ]
        },
        {
            "mesh" : 3,
            "name" : "StrawLayer.003",
            "rotation" : [
                0,
                -0.8302245736122131,
                0,
                0.5574290156364441
            ],
            "scale" : [
                4.201637268066406,
                4.201637268066406,
                4.201637268066406
            ],
            "translation" : [
                -0.47193753719329834,
                0.37966838479042053,
                0
            ]
        },
        {
            "mesh" : 4,
            "name" : "StrawLayer.004",
            "rotation" : [
                0,
                -0.6484745144844055,
                0,
                0.7612363696098328
            ],
            "scale" : [
                7.07381534576416,
                7.07381534576416,
                7.07381534576416
            ],
            "translation" : [
                -1.1933071613311768,
                -0.44918879866600037,
                0
            ]
        },
        {
            "mesh" : 5,
            "name" : "StrawLayer.005",
            "rotation" : [
                0,
                -0.6484745144844055,
                0,
                0.7612363696098328
            ],
            "scale" : [
                5.8518524169921875,
                5.8518524169921875,
                5.8518524169921875
            ],
            "translation" : [
                -1.1933071613311768,
                -0.057060472667217255,
                0
            ]
        },
        {
            "mesh" : 6,
            "name" : "StrawLayer.006",
            "rotation" : [
                0,
                -0.17631849646568298,
                0,
                0.9843331575393677
            ],
            "scale" : [
                5.484560966491699,
                5.484561443328857,
                5.484560966491699
            ],
            "translation" : [
                -1.1933071613311768,
                -0.06749406456947327,
                0
            ]
        },
        {
            "mesh" : 7,
            "name" : "StrawLayer.007",
            "rotation" : [
                0,
                -0.8302245736122131,
                0,
                0.5574290156364441
            ],
            "scale" : [
                4.201637268066406,
                4.201637268066406,
                4.201637268066406
            ],
            "translation" : [
                -0.5779238939285278,
                0.473019540309906,
                0
            ]
        },
        {
            "mesh" : 8,
            "name" : "StrawLayer.008",
            "rotation" : [
                0.5574290156364441,
                0,
                -0.8302246332168579,
                -1.2603710786152078e-07
            ],
            "scale" : [
                4.201637268066406,
                4.201637268066406,
                4.201637268066406
            ],
            "translation" : [
                -0.5779238939285278,
                0.5571352243423462,
                0
            ]
        },
        {
            "mesh" : 9,
            "name" : "StrawLayer.009",
            "rotation" : [
                0.15948176383972168,
                0,
                -0.9872008562088013,
                -2.7588004058998195e-07
            ],
            "scale" : [
                3.567293405532837,
                3.567293405532837,
                3.567293405532837
            ],
            "translation" : [
                -0.5779238939285278,
                0.8061034679412842,
                0
            ]
        },
        {
            "mesh" : 10,
            "name" : "StrawLayer.010",
            "rotation" : [
                0.8681774735450745,
                0,
                -0.4962538480758667,
                -1.46040562754024e-07
            ],
            "scale" : [
                5.759496212005615,
                5.759496212005615,
                5.759496212005615
            ],
            "translation" : [
                -1.1482863426208496,
                0.2645057737827301,
                0
            ]
        }
    ],
    "materials" : [
        {
            "alphaCutoff" : 0.5,
            "alphaMode" : "MASK",
            "doubleSided" : true,
            "emissiveFactor" : [
                0,
                0,
                0
            ],
            "name" : "StrawLayer",
            "pbrMetallicRoughness" : {
                "baseColorTexture" : {
                    "index" : 0,
                    "texCoord" : 0
                },
                "metallicFactor" : 0,
                "roughnessFactor" : 0.5
            }
        }
    ],
    "meshes" : [
        {
            "name" : "StrawLayer",
            "primitives" : [
                {
                    "attributes" : {
                        "POSITION" : 0,
                        "NORMAL" : 1,
                        "TEXCOORD_0" : 2
                    },
                    "indices" : 3,
                    "material" : 0
                }
            ]
        },
        {
            "name" : "StrawLayer.001",
            "primitives" : [
                {
                    "attributes" : {
                        "POSITION" : 4,
                        "NORMAL" : 5,
                        "TEXCOORD_0" : 6
                    },
                    "indices" : 3,
                    "material" : 0
                }
            ]
        },
        {
            "name" : "StrawLayer.002",
            "primitives" : [
                {
                    "attributes" : {
                        "POSITION" : 7,
                        "NORMAL" : 8,
                        "TEXCOORD_0" : 9
                    },
                    "indices" : 3,
                    "material" : 0
                }
            ]
        },
        {
            "name" : "StrawLayer.003",
            "primitives" : [
                {
                    "attributes" : {
                        "POSITION" : 10,
                        "NORMAL" : 11,
                        "TEXCOORD_0" : 12
                    },
                    "indices" : 3,
                    "material" : 0
                }
            ]
        },
        {
            "name" : "StrawLayer.004",
            "primitives" : [
                {
                    "attributes" : {
                        "POSITION" : 13,
                        "NORMAL" : 14,
                        "TEXCOORD_0" : 15
                    },
                    "indices" : 16,
                    "material" : 0
                }
            ]
        },
        {
            "name" : "StrawLayer.005",
            "primitives" : [
                {
                    "attributes" : {
                        "POSITION" : 17,
                        "NORMAL" : 18,
                        "TEXCOORD_0" : 19
                    },
                    "indices" : 3,
                    "material" : 0
                }
            ]
        },
        {
            "name" : "StrawLayer.006",
            "primitives" : [
                {
                    "attributes" : {
                        "POSITION" : 20,
                        "NORMAL" : 21,
                        "TEXCOORD_0" : 22
                    },
                    "indices" : 3,
                    "material" : 0
                }
            ]
        },
        {
            "name" : "StrawLayer.007",
            "primitives" : [
                {
                    "attributes" : {
                        "POSITION" : 23,
                        "NORMAL" : 24,
                        "TEXCOORD_0" : 25
                    },
                    "indices" : 26,
                    "material" : 0
                }
            ]
        },
        {
            "name" : "StrawLayer.008",
            "primitives" : [
                {
                    "attributes" : {
                        "POSITION" : 27,
                        "NORMAL" : 28,
                        "TEXCOORD_0" : 29
                    },
                    "indices" : 30,
                    "material" : 0
                }
            ]
        },
        {
            "name" : "StrawLayer.009",
            "primitives" : [
                {
                    "attributes" : {
                        "POSITION" : 31,
                        "NORMAL" : 32,
                        "TEXCOORD_0" : 33
                    },
                    "indices" : 34,
                    "material" : 0
                }
            ]
        },
        {
            "name" : "StrawLayer.010",
            "primitives" : [
                {
                    "attributes" : {
                        "POSITION" : 35,
                        "NORMAL" : 36,
                        "TEXCOORD_0" : 37
                    },
                    "indices" : 30,
                    "material" : 0
                }
            ]
        }
    ],
    "textures" : [
        {
            "sampler" : 0,
            "source" : 0
        }
    ],
    "images" : [
        {
            "bufferView" : 4,
            "mimeType" : "image/png",
            "name" : "StrawLayer"
        }
    ],
    "accessors" : [
        {
            "bufferView" : 0,
            "componentType" : 5126,
            "count" : 1016,
            "max" : [
                0.5666666626930237,
                0.16000372171401978,
                0.5
            ],
            "min" : [
                -0.5666666626930237,
                0,
                -0.5
            ],
            "type" : "VEC3"
        },
        {
            "bufferView" : 1,
            "componentType" : 5126,
            "count" : 1016,
            "type" : "VEC3"
        },
        {
            "bufferView" : 2,
            "componentType" : 5126,
            "count" : 1016,
            "type" : "VEC2"
        },
        {
            "bufferView" : 3,
            "componentType" : 5123,
            "count" : 1536,
            "type" : "SCALAR"
        },
        {
            "bufferView" : 5,
            "componentType" : 5126,
            "count" : 1016,
            "max" : [
                0.5666666626930237,
                0.16000372171401978,
                0.5
            ],
            "min" : [
                -0.5666666626930237,
                0,
                -0.5
            ],
            "type" : "VEC3"
        },
        {
            "bufferView" : 6,
            "componentType" : 5126,
            "count" : 1016,
            "type" : "VEC3"
        },
        {
            "bufferView" : 7,
            "componentType" : 5126,
            "count" : 1016,
            "type" : "VEC2"
        },
        {
            "bufferView" : 8,
            "componentType" : 5126,
            "count" : 1016,
            "max" : [
                0.5666666626930237,
                0.16000372171401978,
                0.5
            ],
            "min" : [
                -0.5666666626930237,
                0,
                -0.5
            ],
            "type" : "VEC3"
        },
        {
            "bufferView" : 9,
            "componentType" : 5126,
            "count" : 1016,
            "type" : "VEC3"
        },
        {
            "bufferView" : 10,
            "componentType" : 5126,
            "count" : 1016,
            "type" : "VEC2"
        },
        {
            "bufferView" : 11,
            "componentType" : 5126,
            "count" : 1016,
            "max" : [
                0.5666666626930237,
                0.16000372171401978,
                0.5
            ],
            "min" : [
                -0.5666666626930237,
                0,
                -0.5
            ],
            "type" : "VEC3"
        },
        {
            "bufferView" : 12,
            "componentType" : 5126,
            "count" : 1016,
            "type" : "VEC3"
        },
        {
            "bufferView" : 13,
            "componentType" : 5126,
            "count" : 1016,
            "type" : "VEC2"
        },
        {
            "bufferView" : 14,
            "componentType" : 5126,
            "count" : 1018,
            "max" : [
                0.5666666626930237,
                0.16000372171401978,
                0.5
            ],
            "min" : [
                -0.5671142935752869,
                0,
                -0.5010236501693726
            ],
            "type" : "VEC3"
        },
        {
            "bufferView" : 15,
            "componentType" : 5126,
            "count" : 1018,
            "type" : "VEC3"
        },
        {
            "bufferView" : 16,
            "componentType" : 5126,
            "count" : 1018,
            "type" : "VEC2"
        },
        {
            "bufferView" : 17,
            "componentType" : 5123,
            "count" : 1536,
            "type" : "SCALAR"
        },
        {
            "bufferView" : 18,
            "componentType" : 5126,
            "count" : 1016,
            "max" : [
                0.5666666626930237,
                0.16000372171401978,
                0.5
            ],
            "min" : [
                -0.5666666626930237,
                0,
                -0.5
            ],
            "type" : "VEC3"
        },
        {
            "bufferView" : 19,
            "componentType" : 5126,
            "count" : 1016,
            "type" : "VEC3"
        },
        {
            "bufferView" : 20,
            "componentType" : 5126,
            "count" : 1016,
            "type" : "VEC2"
        },
        {
            "bufferView" : 21,
            "componentType" : 5126,
            "count" : 1016,
            "max" : [
                0.5666666626930237,
                0.16000372171401978,
                0.5
            ],
            "min" : [
                -0.5666666626930237,
                0,
                -0.5
            ],
            "type" : "VEC3"
        },
        {
            "bufferView" : 22,
            "componentType" : 5126,
            "count" : 1016,
            "type" : "VEC3"
        },
        {
            "bufferView" : 23,
            "componentType" : 5126,
            "count" : 1016,
            "type" : "VEC2"
        },
        {
            "bufferView" : 24,
            "componentType" : 5126,
            "count" : 1022,
            "max" : [
                0.5666674971580505,
                0.177964448928833,
                0.5
            ],
            "min" : [
                -0.5666666626930237,
                0,
                -0.5014809370040894
            ],
            "type" : "VEC3"
        },
        {
            "bufferView" : 25,
            "componentType" : 5126,
            "count" : 1022,
            "type" : "VEC3"
        },
        {
            "bufferView" : 26,
            "componentType" : 5126,
            "count" : 1022,
            "type" : "VEC2"
        },
        {
            "bufferView" : 27,
            "componentType" : 5123,
            "count" : 1536,
            "type" : "SCALAR"
        },
        {
            "bufferView" : 28,
            "componentType" : 5126,
            "count" : 1016,
            "max" : [
                0.5666666626930237,
                0.16000372171401978,
                0.5
            ],
            "min" : [
                -0.5666666626930237,
                0,
                -0.5
            ],
            "type" : "VEC3"
        },
        {
            "bufferView" : 29,
            "componentType" : 5126,
            "count" : 1016,
            "type" : "VEC3"
        },
        {
            "bufferView" : 30,
            "componentType" : 5126,
            "count" : 1016,
            "type" : "VEC2"
        },
        {
            "bufferView" : 31,
            "componentType" : 5123,
            "count" : 1536,
            "type" : "SCALAR"
        },
        {
            "bufferView" : 32,
            "componentType" : 5126,
            "count" : 1022,
            "max" : [
                0.5666666626930237,
                0.16000372171401978,
                0.5059143900871277
            ],
            "min" : [
                -0.6000646352767944,
                -0.02947494015097618,
                -0.5089660286903381
            ],
            "type" : "VEC3"
        },
        {
            "bufferView" : 33,
            "componentType" : 5126,
            "count" : 1022,
            "type" : "VEC3"
        },
        {
            "bufferView" : 34,
            "componentType" : 5126,
            "count" : 1022,
            "type" : "VEC2"
        },
        {
            "bufferView" : 35,
            "componentType" : 5123,
            "count" : 1536,
            "type" : "SCALAR"
        },
        {
            "bufferView" : 36,
            "componentType" : 5126,
            "count" : 1016,
            "max" : [
                0.5666666626930237,
                0.16000372171401978,
                0.5
            ],
            "min" : [
                -0.5666666626930237,
                0,
                -0.5
            ],
            "type" : "VEC3"
        },
        {
            "bufferView" : 37,
            "componentType" : 5126,
            "count" : 1016,
            "type" : "VEC3"
        },
        {
            "bufferView" : 38,
            "componentType" : 5126,
            "count" : 1016,
            "type" : "VEC2"
        }
    ],
    "bufferViews" : [
        {
            "buffer" : 0,
            "byteLength" : 12192,
            "byteOffset" : 0
        },
        {
            "buffer" : 0,
            "byteLength" : 12192,
            "byteOffset" : 12192
        },
        {
            "buffer" : 0,
            "byteLength" : 8128,
            "byteOffset" : 24384
        },
        {
            "buffer" : 0,
            "byteLength" : 3072,
            "byteOffset" : 32512
        },
        {
            "buffer" : 0,
            "byteLength" : 2377130,
            "byteOffset" : 35584
        },
        {
            "buffer" : 0,
            "byteLength" : 12192,
            "byteOffset" : 2412716
        },
        {
            "buffer" : 0,
            "byteLength" : 12192,
            "byteOffset" : 2424908
        },
        {
            "buffer" : 0,
            "byteLength" : 8128,
            "byteOffset" : 2437100
        },
        {
            "buffer" : 0,
            "byteLength" : 12192,
            "byteOffset" : 2445228
        },
        {
            "buffer" : 0,
            "byteLength" : 12192,
            "byteOffset" : 2457420
        },
        {
            "buffer" : 0,
            "byteLength" : 8128,
            "byteOffset" : 2469612
        },
        {
            "buffer" : 0,
            "byteLength" : 12192,
            "byteOffset" : 2477740
        },
        {
            "buffer" : 0,
            "byteLength" : 12192,
            "byteOffset" : 2489932
        },
        {
            "buffer" : 0,
            "byteLength" : 8128,
            "byteOffset" : 2502124
        },
        {
            "buffer" : 0,
            "byteLength" : 12216,
            "byteOffset" : 2510252
        },
        {
            "buffer" : 0,
            "byteLength" : 12216,
            "byteOffset" : 2522468
        },
        {
            "buffer" : 0,
            "byteLength" : 8144,
            "byteOffset" : 2534684
        },
        {
            "buffer" : 0,
            "byteLength" : 3072,
            "byteOffset" : 2542828
        },
        {
            "buffer" : 0,
            "byteLength" : 12192,
            "byteOffset" : 2545900
        },
        {
            "buffer" : 0,
            "byteLength" : 12192,
            "byteOffset" : 2558092
        },
        {
            "buffer" : 0,
            "byteLength" : 8128,
            "byteOffset" : 2570284
        },
        {
            "buffer" : 0,
            "byteLength" : 12192,
            "byteOffset" : 2578412
        },
        {
            "buffer" : 0,
            "byteLength" : 12192,
            "byteOffset" : 2590604
        },
        {
            "buffer" : 0,
            "byteLength" : 8128,
            "byteOffset" : 2602796
        },
        {
            "buffer" : 0,
            "byteLength" : 12264,
            "byteOffset" : 2610924
        },
        {
            "buffer" : 0,
            "byteLength" : 12264,
            "byteOffset" : 2623188
        },
        {
            "buffer" : 0,
            "byteLength" : 8176,
            "byteOffset" : 2635452
        },
        {
            "buffer" : 0,
            "byteLength" : 3072,
            "byteOffset" : 2643628
        },
        {
            "buffer" : 0,
            "byteLength" : 12192,
            "byteOffset" : 2646700
        },
        {
            "buffer" : 0,
            "byteLength" : 12192,
            "byteOffset" : 2658892
        },
        {
            "buffer" : 0,
            "byteLength" : 8128,
            "byteOffset" : 2671084
        },
        {
            "buffer" : 0,
            "byteLength" : 3072,
            "byteOffset" : 2679212
        },
        {
            "buffer" : 0,
            "byteLength" : 12264,
            "byteOffset" : 2682284
        },
        {
            "buffer" : 0,
            "byteLength" : 12264,
            "byteOffset" : 2694548
        },
        {
            "buffer" : 0,
            "byteLength" : 8176,
            "byteOffset" : 2706812
        },
        {
            "buffer" : 0,
            "byteLength" : 3072,
            "byteOffset" : 2714988
        },
        {
            "buffer" : 0,
            "byteLength" : 12192,
            "byteOffset" : 2718060
        },
        {
            "buffer" : 0,
            "byteLength" : 12192,
            "byteOffset" : 2730252
        },
        {
            "buffer" : 0,
            "byteLength" : 8128,
            "byteOffset" : 2742444
        }
    ],
    "samplers" : [
        {
            "magFilter" : 9729,
            "minFilter" : 9986
        }
    ],
    "buffers" : [
        {
            "byteLength" : 2750572,
            "uri" : "data:application/octet-stream;base64,"
        }
    ]
}
